<?xml version="1.0" encoding="iso-8859-1"?>
<!-- Generator: Adobe Illustrator 16.0.0, SVG Export Plug-In . SVG Version: 6.00 Build 0)  -->
<!DOCTYPE svg PUBLIC "-//W3C//DTD SVG 1.1//EN" "http://www.w3.org/Graphics/SVG/1.1/DTD/svg11.dtd">
<svg version="1.1" id="Capa_1" xmlns="http://www.w3.org/2000/svg" xmlns:xlink="http://www.w3.org/1999/xlink" x="0px" y="0px"
	 width="32.818px" height="31.229px" viewBox="0 0 32.818 31.229" style="enable-background:new 0 0 32.818 31.229;"
	 xml:space="preserve">
<path d="M30.632,0H2.19C0.98,0,0,0.986,0,2.203v20.206c0,1.215,0.98,2.203,2.19,2.203H13.1c0,0,0.477,4.41-3.307,4.41v2.207H13.1
	h6.616h3.31v-2.207c-3.93,0-3.31-4.41-3.31-4.41h10.916c1.207,0,2.187-0.987,2.187-2.203V2.203C32.818,0.986,31.839,0,30.632,0z
	 M14.663,21.913c0-1.044,0.848-1.891,1.893-1.891c1.046,0,1.892,0.847,1.892,1.891c0,1.045-0.846,1.893-1.892,1.893
	C15.511,23.806,14.663,22.958,14.663,21.913z M30.475,19.379H2.345V2.342h28.13V19.379z"/>
<circle cx="16.576" cy="21.906" r="1.176"/>
<g>
</g>
<g>
</g>
<g>
</g>
<g>
</g>
<g>
</g>
<g>
</g>
<g>
</g>
<g>
</g>
<g>
</g>
<g>
</g>
<g>
</g>
<g>
</g>
<g>
</g>
<g>
</g>
<g>
</g>
</svg>
