<?xml version="1.0" encoding="utf-8"?>
<!-- Generator: Adobe Illustrator 17.0.0, SVG Export Plug-In . SVG Version: 6.00 Build 0)  -->
<!DOCTYPE svg PUBLIC "-//W3C//DTD SVG 1.1//EN" "http://www.w3.org/Graphics/SVG/1.1/DTD/svg11.dtd">
<svg version="1.1" id="Capa_1" xmlns="http://www.w3.org/2000/svg" xmlns:xlink="http://www.w3.org/1999/xlink" x="0px" y="0px"
	 width="64px" height="64px" viewBox="0 0 64 64" enable-background="new 0 0 64 64" xml:space="preserve">
<path fill-rule="evenodd" clip-rule="evenodd" d="M54.671,16.265h-8.474c-1.104,0-2.896,0.011-4,0.013
	c-0.321,0-0.654,0.001-0.976,0.002c-1.104,0.001-1.964-0.906-2.2-1.985c-1.116-5.099-6.514-4.834-6.514-4.834h-3.68
	c-4.971,0-6.374,2.816-6.742,4.83c-0.199,1.086-0.985,1.991-2.089,1.991h-0.871c-1.104,0-2.895-0.014-3.999-0.018
	c-2.327-0.008-6.147-0.011-8.474-0.012c-1.105,0-2.001,0.895-2.001,2v8.436V44.03v8.406c0,1.104,0.896,2,2,2h8.301h2.173h25.072
	c1.104,0,2.896,0.007,4,0.009c2.327,0.004,6.146,0.005,8.473,0.005c1.104,0,2-0.895,2-2v-8.42V26.686v-8.421
	C56.671,17.16,55.776,16.265,54.671,16.265z M21.996,48.967c0,1.104-0.777,2-1.734,2c-0.958,0-1.735-0.896-1.735-2V21.749
	c0-1.104,0.777-2,1.735-2c0.958,0,1.734,0.896,1.734,2V48.967z M33.871,16.286h-3.21h-0.176h-3.209
	c-1.104,0-2.081-0.951-1.576-1.934c0.434-0.844,1.304-1.646,3.046-1.646h1.74h0.176h1.74c1.742,0,2.612,0.801,3.046,1.646
	C35.951,15.335,34.975,16.286,33.871,16.286z M42.797,48.967c0,1.104-0.774,2-1.729,2c-0.955,0-1.729-0.896-1.729-2V21.749
	c0-1.104,0.774-2,1.729-2c0.955,0,1.729,0.896,1.729,2V48.967z"/>
</svg>
